<?xml version="1.0" standalone="no"?>
<!DOCTYPE svg PUBLIC "-//W3C//DTD SVG 20010904//EN"
 "http://www.w3.org/TR/2001/REC-SVG-20010904/DTD/svg10.dtd">
<svg version="1.0" xmlns="http://www.w3.org/2000/svg"
 width="1280.000000pt" height="1165.000000pt" viewBox="0 0 1280.000000 1165.000000"
 preserveAspectRatio="xMidYMid meet">
<g transform="translate(0.000000,1165.000000) scale(0.100000,-0.100000)"
fill="#000000" stroke="none">
<path fill="#ff7101" d="M4825 11503 c-25 -82 -56 -179 -69 -218 l-23 -70 -340 -3 -341 -2
-36 -91 c-31 -77 -36 -101 -34 -153 l3 -61 323 -3 c358 -3 336 3 306 -72 l-16
-40 -358 0 -358 0 -41 -102 c-34 -85 -41 -115 -41 -170 l0 -68 339 0 c189 0
342 -4 345 -9 3 -5 -2 -35 -12 -67 l-18 -59 -383 -5 -383 -5 -49 -120 c-42
-104 -48 -130 -49 -192 l0 -73 365 0 365 0 -1 -22 c0 -13 -10 -50 -22 -83
l-22 -60 -135 -6 c-74 -4 -257 -7 -406 -8 l-272 -1 -61 -154 c-57 -140 -62
-159 -59 -217 l3 -64 393 -3 c275 -1 392 -5 392 -13 0 -19 -53 -183 -63 -196
-7 -10 -112 -13 -440 -15 l-431 -3 -73 -180 c-66 -165 -72 -186 -73 -252 l0
-73 413 0 c232 0 418 -4 426 -9 13 -8 9 -29 -24 -133 -21 -68 -43 -129 -48
-135 -7 -10 -119 -13 -476 -15 l-466 -3 -87 -215 c-86 -212 -87 -216 -88 -302
l0 -88 448 0 c251 0 453 -4 461 -9 12 -8 7 -35 -34 -166 -27 -86 -54 -164 -60
-172 -9 -12 -85 -14 -510 -14 -275 1 -505 -3 -512 -7 -6 -4 -61 -132 -122
-285 -111 -277 -111 -277 -111 -362 l0 -85 504 0 c290 0 507 -4 510 -9 5 -8
-110 -396 -134 -448 l-9 -23 -568 -2 -567 -3 -143 -355 -142 -355 -1 -127 0
-128 555 0 555 0 0 -21 c0 -23 -165 -558 -175 -568 -4 -3 -293 -8 -643 -11
l-636 -5 -188 -470 -188 -470 0 -142 0 -143 625 0 c535 0 626 -2 631 -14 5
-13 -226 -777 -248 -818 -8 -17 -53 -18 -733 -18 l-724 0 -15 -28 c-8 -15
-123 -300 -256 -632 -133 -333 -248 -618 -256 -634 -10 -21 -14 -67 -14 -158
l0 -128 740 0 c657 0 741 -2 747 -15 3 -9 -21 -98 -53 -198 l-59 -182 0 -225
0 -225 284 -3 c157 -1 288 1 293 6 4 4 59 185 123 402 63 217 119 405 125 418
l10 22 4162 -2 4162 -3 48 -165 c27 -91 83 -283 125 -428 l76 -262 289 0 288
0 0 229 0 229 -60 192 c-33 106 -58 196 -54 201 3 5 326 9 780 9 l774 0 0 128
c0 91 -4 137 -14 158 -8 16 -123 301 -256 634 -133 333 -249 617 -256 633
l-15 27 -754 0 c-585 0 -756 3 -762 12 -4 7 -65 193 -134 413 -87 277 -123
404 -116 413 7 9 152 12 663 12 l654 0 0 143 0 142 -188 470 -188 470 -669 5
c-579 4 -669 7 -677 20 -16 28 -178 562 -172 571 3 5 257 9 590 9 l584 0 0
128 -1 127 -142 355 -143 355 -601 3 -602 2 -40 128 c-89 285 -102 332 -96
342 4 7 188 10 541 10 l534 0 0 86 0 86 -111 276 c-61 152 -116 280 -123 285
-6 4 -180 7 -386 7 -206 -1 -448 -1 -537 -1 l-162 1 -45 143 c-60 190 -62 197
-45 208 8 5 231 9 497 9 l482 0 -1 78 c-1 73 -5 88 -92 302 l-92 225 -504 5
-505 5 -38 120 c-42 135 -45 150 -22 159 9 3 213 6 455 6 l439 0 0 73 c-1 66
-7 87 -73 252 l-73 180 -469 5 -469 5 -28 90 c-15 50 -28 98 -28 108 0 16 27
17 425 17 l425 0 0 68 c0 59 -7 85 -60 218 l-61 151 -435 6 c-240 3 -438 8
-441 11 -13 13 -52 151 -45 158 4 4 185 9 402 10 l395 3 3 55 c2 47 -5 75 -52
190 l-54 135 -413 5 -413 5 -18 45 c-9 25 -17 55 -17 67 l-1 23 378 2 377 3 3
51 c2 42 -6 73 -44 168 l-46 116 -390 0 -389 0 -15 35 c-7 19 -14 43 -14 55 0
19 6 20 358 22 l357 3 3 49 c3 38 -5 70 -39 152 l-41 104 -370 0 -369 0 -14
33 c-7 17 -39 116 -71 220 l-58 187 -163 0 c-91 0 -163 -4 -163 -9 0 -5 -11
-87 -25 -183 -15 -100 -23 -189 -19 -210 l6 -38 -1129 0 c-622 0 -1132 3
-1135 6 -4 3 1 30 9 60 16 53 15 59 -18 214 l-33 160 -163 0 -162 0 -46 -147z
m1565 -603 l1209 0 10 -37 c6 -21 11 -46 11 -55 0 -17 -66 -18 -1249 -18 -688
0 -1252 4 -1255 8 -7 11 13 83 27 100 5 7 17 10 24 7 8 -3 559 -5 1223 -5z
m1359 -512 c10 -35 17 -66 14 -70 -6 -11 -2793 -10 -2793 0 0 11 31 115 37
125 2 4 616 7 1363 7 l1359 0 20 -62z m136 -478 c19 -30 44 -145 34 -155 -12
-12 -2302 -21 -2786 -10 -280 6 -323 9 -323 23 0 8 9 46 20 83 l21 69 1514 0
c1032 0 1516 -3 1520 -10z m203 -685 c12 -38 25 -87 29 -108 l6 -37 -1754 2
-1754 3 3 25 c1 14 14 62 28 108 l25 82 1697 -2 1697 -3 23 -70z m184 -667
c17 -14 91 -255 82 -269 -3 -5 -896 -9 -1985 -9 -1655 0 -1980 2 -1985 14 -4
11 59 246 73 269 2 4 858 7 1902 7 1503 0 1900 -3 1913 -12z m267 -902 c14
-17 102 -316 99 -335 -3 -11 -369 -13 -2266 -13 -1260 0 -2267 4 -2272 8 -7 8
77 315 94 342 5 9 536 12 2170 12 1822 0 2165 -2 2175 -14z m393 -1320 c37
-126 65 -233 62 -237 -3 -5 -1163 -9 -2630 -9 -2092 0 -2624 3 -2624 13 -1 20
123 441 133 455 8 9 515 12 2501 10 l2491 -3 67 -229z m355 -1228 c15 -21 165
-546 161 -565 -3 -17 -141 -18 -3078 -21 -1752 -1 -3078 2 -3083 7 -6 6 122
478 158 579 3 9 596 12 2918 12 2320 0 2916 -3 2924 -12z m654 -2223 c65 -220
118 -410 119 -422 l0 -23 -3689 0 c-2085 0 -3692 4 -3695 9 -5 8 213 771 234
819 l10 22 3452 -2 3452 -3 117 -400z"/>
</g>
</svg>
