<?xml version="1.0" standalone="no"?>
<!DOCTYPE svg PUBLIC "-//W3C//DTD SVG 20010904//EN"
 "http://www.w3.org/TR/2001/REC-SVG-20010904/DTD/svg10.dtd">
<svg version="1.0" xmlns="http://www.w3.org/2000/svg"
 width="260.000000pt" height="260.000000pt" viewBox="0 0 260.000000 260.000000"
 preserveAspectRatio="xMidYMid meet">
<metadata>
Created by potrace 1.14, written by Peter Selinger 2001-2017
</metadata>
<g transform="translate(0.000000,260.000000) scale(0.100000,-0.100000)"
fill="#000000" stroke="none">
<path d="M0 1300 l0 -1300 1300 0 1300 0 0 1300 0 1300 -1300 0 -1300 0 0
-1300z m1545 735 c33 -9 60 -17 62 -18 1 -2 -2 -19 -7 -38 -5 -19 -14 -52 -19
-75 l-11 -41 -52 14 c-73 20 -191 13 -244 -15 -175 -90 -177 -385 -4 -481 52
-29 160 -39 240 -22 29 6 55 9 58 7 2 -3 11 -35 18 -72 12 -54 12 -69 2 -75
-29 -18 -151 -32 -239 -27 -207 12 -336 103 -389 276 -35 112 -22 260 31 364
46 90 155 171 272 203 70 19 209 19 282 0z m830 0 c33 -9 60 -17 62 -18 1 -2
-2 -19 -7 -38 -5 -19 -14 -52 -19 -75 l-11 -41 -52 14 c-73 20 -191 13 -244
-15 -175 -90 -177 -385 -4 -481 52 -29 160 -39 240 -22 29 6 55 9 58 7 2 -3
11 -35 18 -72 12 -54 12 -69 2 -75 -29 -18 -151 -32 -239 -27 -207 12 -336
103 -389 276 -35 112 -22 260 31 364 46 90 155 171 272 203 70 19 209 19 282
0z m-1575 -75 l0 -80 -115 0 -115 0 0 -340 0 -340 -95 0 -95 0 0 340 0 340
-115 0 -115 0 0 80 0 80 325 0 325 0 0 -80z m1568 -1103 c3 -12 -4 -20 -17
-24 l-21 -5 21 -29 c16 -23 28 -29 58 -29 20 0 42 -5 49 -12 16 -16 15 -48 -1
-48 -7 0 -20 -9 -30 -20 -22 -27 -73 -27 -89 0 -11 17 -24 20 -90 20 -63 0
-78 -3 -78 -15 0 -11 -11 -15 -35 -15 -22 0 -38 6 -41 15 -5 12 -24 15 -85 15
-64 0 -79 -3 -79 -15 0 -11 -11 -15 -35 -15 -22 0 -38 6 -41 15 -5 12 -24 15
-85 15 -64 0 -79 -3 -79 -15 0 -11 -11 -15 -35 -15 -22 0 -38 6 -41 15 -5 12
-24 15 -85 15 -46 0 -79 -4 -79 -10 0 -5 -16 -10 -35 -10 -19 0 -35 5 -35 10
0 6 -33 10 -79 10 -61 0 -80 -3 -85 -15 -7 -20 -65 -20 -72 0 -5 11 -23 15
-79 15 -56 0 -74 -4 -79 -15 -8 -21 -76 -21 -76 0 0 12 -15 15 -75 15 -58 0
-77 -4 -81 -15 -4 -8 -16 -15 -29 -15 -12 0 -28 7 -35 15 -17 20 -145 21 -157
1 -4 -7 -25 -16 -45 -20 -34 -6 -38 -5 -38 14 0 18 -6 20 -66 20 -45 0 -70 -5
-80 -15 -9 -8 -26 -15 -39 -15 -12 0 -25 7 -29 15 -4 11 -20 15 -55 15 -36 0
-51 4 -55 16 -12 31 13 44 83 44 63 0 69 2 101 35 l34 35 -52 0 c-38 0 -52 4
-52 14 0 8 6 17 13 19 6 3 484 5 1062 4 1007 -2 1050 -3 1053 -20z"/>
<path d="M406 805 l-27 -35 56 0 c33 0 61 5 68 13 7 7 21 23 31 35 l19 22 -60
0 c-57 0 -62 -2 -87 -35z"/>
<path d="M613 812 c-13 -15 -23 -30 -23 -34 0 -5 27 -8 59 -8 54 0 61 3 80 29
12 16 21 32 21 35 0 3 -26 6 -57 6 -51 0 -61 -4 -80 -28z"/>
<path d="M819 813 c-7 -16 -15 -31 -17 -35 -2 -5 28 -8 66 -8 58 0 71 3 75 18
2 9 8 25 12 35 6 15 0 17 -57 17 -61 0 -66 -2 -79 -27z"/>
<path d="M1023 800 l-11 -30 69 0 c65 0 70 2 79 26 6 14 10 27 10 30 0 2 -31
4 -68 4 -66 0 -68 -1 -79 -30z"/>
<path d="M1238 800 l-5 -30 74 0 73 0 0 30 0 30 -69 0 -69 0 -4 -30z"/>
<path d="M1454 814 c3 -9 6 -22 6 -30 0 -11 16 -14 70 -14 l70 0 0 30 0 30
-76 0 c-65 0 -75 -2 -70 -16z"/>
<path d="M1672 803 c3 -28 4 -28 80 -31 l77 -3 -12 31 c-11 29 -13 30 -80 30
l-68 0 3 -27z"/>
<path d="M1894 814 c3 -9 6 -22 6 -30 0 -11 17 -14 75 -14 41 0 75 2 75 5 0 3
-7 17 -16 30 -15 22 -23 25 -81 25 -55 0 -64 -2 -59 -16z"/>
<path d="M2110 825 c0 -3 7 -17 16 -30 15 -23 23 -25 85 -25 l70 0 -23 30
c-20 28 -26 30 -85 30 -35 0 -63 -2 -63 -5z"/>
</g>
</svg>
